PathFileType	4	(X/Y/Z)	s09c0401.trc
DataRate	CameraRate	NumFrames	NumMarkers	Units	OrigDataRate	OrigDataStartFrame	OrigNumFrames
200	200	5	50	mm	200	750	2000
Frame#	Time	racr			lacr			c7			jug			rlel			rdr			llel			ldr			s2			lic			ric			lasi			rasi			rpsi			lpsi			rgt			lgt			rth1			rth2			rth3			rth4			rlfc			rmfc			rsh1			rsh2			rsh3			rsh4			rlmal			rmmal			rcal			rtoe			rmt5			lth1			lth2			lth4			lth3			llfc			lmfc			llmal			lmmal			lcal			lmt5			lsh1			lsh2			lsh3			lsh4			ltoe			SBIKE			LBIKE			RBIKE			
		X1	Y1	Z1	X2	Y2	Z2	X3	Y3	Z3	X4	Y4	Z4	X5	Y5	Z5	X6	Y6	Z6	X7	Y7	Z7	X8	Y8	Z8	X9	Y9	Z9	X10	Y10	Z10	X11	Y11	Z11	X12	Y12	Z12	X13	Y13	Z13	X14	Y14	Z14	X15	Y15	Z15	X16	Y16	Z16	X17	Y17	Z17	X18	Y18	Z18	X19	Y19	Z19	X20	Y20	Z20	X21	Y21	Z21	X22	Y22	Z22	X23	Y23	Z23	X24	Y24	Z24	X25	Y25	Z25	X26	Y26	Z26	X27	Y27	Z27	X28	Y28	Z28	X29	Y29	Z29	X30	Y30	Z30	X31	Y31	Z31	X32	Y32	Z32	X33	Y33	Z33	X34	Y34	Z34	X35	Y35	Z35	X36	Y36	Z36	X37	Y37	Z37	X38	Y38	Z38	X39	Y39	Z39	X40	Y40	Z40	X41	Y41	Z41	X42	Y42	Z42	X43	Y43	Z43	X44	Y44	Z44	X45	Y45	Z45	X46	Y46	Z46	X47	Y47	Z47	X48	Y48	Z48	X49	Y49	Z49	X50	Y50	Z50	
750	3.7500	565.542046	1357.383878	-27.624652	659.288315	1320.126308	-387.618126	582.985974	1425.257447	-217.346383	618.408298	1294.191935	-203.164341	525.679057	1100.268809	37.615658	666.399657	905.598754	-56.870265	596.058936	1086.641210	-532.662514	632.436675	857.997376	-433.004375	170.027404	1139.084568	-290.047819	333.675784	1115.818162	-403.619361	285.950856	1165.378891	-122.062549	363.435105	1062.980123	-366.477601	327.454931	1106.262711	-130.360818	186.517116	1180.893859	-229.786430	207.646602	1167.936381	-337.528510	268.864705	1035.989521	-62.413920	271.279147	975.976824	-430.137291	386.501099	963.384643	-58.916588	467.613051	930.988218	-68.076562	521.430768	860.836415	-67.626385	484.159128	952.411284	-91.152128	572.966665	773.576362	-93.372122	553.676553	757.057917	-193.023402	477.115810	734.716302	-66.844510	413.408154	672.992962	-81.369177	328.236014	651.767216	-80.707130	428.618393	652.346489	-111.048432	243.621167	596.747314	-83.632571	248.765539	608.966452	-159.815906	153.988685	615.226195	-119.067061	370.859199	463.822436	-130.424427	295.078498	493.832277	-63.364718	300.950451	846.836069	-424.847242	338.904274	771.270709	-413.280754	374.400073	778.539551	-399.941398	333.157965	681.804356	-402.358942	338.415085	587.838957	-383.069526	337.842807	573.237973	-287.697110	213.244123	241.421327	-401.516191	230.950575	246.134232	-330.209445	142.408895	208.352887	-366.766055	304.615494	149.318574	-430.747042	297.488312	495.419476	-409.808695	293.504969	409.119936	-402.993359	245.766940	334.183687	-404.942078	316.757496	403.425693	-370.903964	398.122455	157.339467	-362.937536	-64.936348	853.170513	-240.839025	21.138802	83.910875	-442.049310	21.102970	84.000802	-44.003892	
751	3.7550	565.785377	1356.334520	-24.918409	660.697893	1319.100857	-384.077563	584.027438	1424.075598	-214.014277	618.675379	1292.615590	-199.944113	526.185455	1099.392503	40.688400	665.224110	905.591960	-58.050046	597.659538	1086.755476	-530.969338	632.637053	857.254769	-432.480567	169.988455	1140.680279	-290.953073	334.769338	1116.545313	-403.046284	284.748413	1166.907167	-122.151290	363.887787	1063.591508	-365.602919	326.142680	1107.574612	-129.770301	186.023417	1182.557301	-230.701430	208.169986	1169.338745	-338.362231	267.383614	1037.723656	-62.736140	271.806578	976.979943	-429.874278	385.415236	965.644292	-59.270914	466.869164	933.597524	-68.502515	520.917256	863.938401	-68.050550	483.367536	955.344390	-91.346551	573.382203	777.070777	-93.615807	555.087809	760.322228	-192.585830	477.881836	737.347320	-67.117474	414.901246	674.905547	-81.473234	329.937255	652.742104	-80.721509	430.370207	654.095088	-110.884574	246.057531	596.570023	-83.721515	250.788754	608.844300	-159.826808	155.722768	613.552792	-119.101072	375.789355	466.669937	-130.377114	299.417737	494.938006	-63.193991	300.320601	847.724483	-424.627656	337.624059	771.786137	-412.865778	373.041657	778.840904	-399.247487	331.051057	682.425266	-402.164231	335.453242	588.432754	-382.817419	334.645373	573.479494	-287.337325	209.782695	242.385984	-401.192833	228.010435	246.547637	-330.632765	138.935717	210.473833	-366.722865	300.219630	148.816297	-430.675812	294.291214	496.175935	-409.635700	290.282004	409.928115	-402.872973	242.545096	335.000711	-404.906058	313.573592	404.145701	-370.818750	393.802778	155.212857	-362.844392	-64.926145	853.191696	-240.804617	21.141136	83.911496	-442.055627	21.115358	83.994667	-43.984362	
752	3.7600	566.088201	1355.162138	-22.265286	662.105696	1318.050395	-380.530148	585.083773	1422.663415	-210.806056	618.885836	1291.000859	-196.818051	526.778783	1098.468728	43.964306	663.855905	905.795730	-59.265765	599.280816	1086.922510	-529.257873	632.596530	856.710191	-432.037529	169.938460	1142.536517	-291.843231	335.920976	1117.246728	-403.306731	283.438389	1168.462734	-122.267712	364.253127	1064.254757	-364.801314	324.885868	1108.997955	-129.053978	185.592665	1184.225860	-231.621348	208.377787	1170.967939	-338.728344	265.823627	1039.559408	-63.159561	272.235139	978.046409	-429.842515	384.405311	967.903430	-59.637520	465.962621	936.463342	-68.744597	520.470040	866.827974	-68.415066	482.534399	958.280579	-91.491835	573.704601	780.481330	-93.859768	555.694777	763.524249	-192.783276	478.624766	739.898928	-67.359653	416.384022	676.716520	-81.538580	331.599465	653.669039	-80.886572	432.091121	656.074432	-110.963065	248.531437	596.261844	-83.760347	252.922329	608.528839	-159.811194	157.897822	611.366353	-118.081692	380.803525	469.260840	-130.365810	303.769679	495.932104	-63.070575	299.737003	848.696710	-424.466142	336.324582	772.453598	-412.518607	371.722290	779.285642	-398.610912	329.238974	683.187047	-402.261079	332.614413	589.023121	-382.636281	331.366444	574.122793	-287.148468	206.474936	243.496342	-400.978601	225.223162	247.217819	-331.176223	135.529941	212.837918	-366.684898	295.727583	148.437126	-430.540286	291.200506	497.076036	-409.546170	287.155152	410.810129	-402.843497	239.445894	335.883499	-404.821538	310.459686	404.969702	-370.723847	389.400777	153.206159	-362.730453	-64.948215	853.188241	-240.759462	21.144350	83.931635	-442.057005	21.119181	83.979648	-43.974389	
753	3.7650	566.380084	1353.854706	-19.893006	663.460015	1316.953566	-377.036463	586.235634	1421.326835	-207.380384	619.071733	1289.280086	-193.737175	527.426854	1097.499226	47.396865	662.377632	905.862971	-60.380632	600.871758	1087.041310	-527.620377	632.633037	856.202472	-431.598433	169.777380	1144.155158	-292.693392	336.857292	1118.083574	-402.758342	282.201964	1169.885697	-122.598074	364.560681	1065.070302	-363.830913	323.494479	1110.482164	-128.232762	184.814078	1185.686399	-232.677664	209.418082	1172.039727	-339.567429	264.149449	1041.533035	-63.552843	272.724861	979.105010	-429.741320	383.471846	970.187944	-60.693372	465.160423	939.103803	-69.254070	519.866152	869.964339	-68.635955	481.571560	961.174226	-91.670256	573.895442	783.973993	-93.996196	555.864675	767.444198	-193.060951	479.322027	742.322449	-67.620107	417.752999	678.320389	-81.642792	333.336873	654.259929	-80.979584	433.727405	657.765104	-110.996901	250.950993	595.777391	-83.802310	255.030452	608.038176	-159.811965	159.509516	609.189624	-118.098851	385.647950	471.821157	-130.309285	308.105076	496.764805	-62.941460	299.195186	849.741692	-424.271649	335.211266	773.235560	-412.139975	370.402769	779.900084	-398.123308	327.443169	684.115050	-402.150401	329.837378	589.748428	-382.524743	328.269196	574.807644	-286.933997	203.268031	244.799344	-400.811554	222.527132	248.086747	-331.768564	132.254995	215.336098	-366.630565	291.325740	148.253726	-430.510279	288.207857	498.081855	-409.388887	284.174407	411.848375	-402.839098	236.381843	336.940042	-404.824474	307.462892	405.947224	-370.684191	385.027387	151.395196	-362.634956	-64.929683	853.191196	-240.713112	21.127929	83.951292	-442.030688	21.117189	83.987509	-43.973071	
754	3.7700	566.921898	1352.360723	-17.211020	664.759925	1315.813934	-373.585099	587.461968	1419.791586	-204.116540	619.226996	1287.377765	-190.737174	528.264759	1096.443160	50.885077	660.754243	905.601133	-61.450582	602.199474	1087.217915	-526.077749	632.672337	855.777793	-431.141700	169.638807	1146.065040	-293.489302	337.794551	1118.896084	-402.168219	280.873748	1171.423641	-122.673569	364.828654	1065.999074	-362.824228	322.168481	1111.981530	-127.401115	184.408885	1187.499907	-233.635752	209.822866	1173.781278	-340.166167	262.406540	1043.564673	-63.866033	273.271114	980.258918	-429.655517	382.318281	972.582827	-60.993507	464.061424	941.740202	-69.294279	519.144378	872.881749	-68.673698	480.589902	963.993577	-91.824544	573.977751	787.116342	-94.118093	556.209418	770.042676	-193.533159	479.955440	744.709363	-67.613813	419.089216	679.672940	-81.766288	335.006969	654.624907	-81.083571	435.315535	659.255311	-111.108822	253.612651	595.016348	-83.832142	257.149609	607.415643	-159.927988	161.813251	606.624245	-118.071667	390.553569	474.203819	-130.259470	312.432266	497.415756	-62.740552	298.767679	850.876713	-424.103141	334.211855	774.225129	-411.779187	369.219613	780.573888	-397.389457	325.729528	685.045671	-401.978533	327.273254	590.629519	-382.401665	325.453751	575.651777	-286.762807	200.190152	246.251762	-400.643950	219.986703	249.096722	-332.371663	129.074647	218.086421	-366.531433	286.890514	148.182948	-430.409008	285.320737	499.278351	-409.343755	281.233398	412.956321	-402.836568	233.398168	338.160088	-404.800857	304.575557	407.123686	-370.711652	380.635083	149.557519	-362.586665	-64.917771	853.205864	-240.670527	21.137645	83.969198	-442.026655	21.106249	83.989274	-43.971595	
